<?xml version="1.0" encoding="utf-8"?>
<!-- Generator: Adobe Illustrator 16.0.0, SVG Export Plug-In . SVG Version: 6.00 Build 0)  -->
<!DOCTYPE svg PUBLIC "-//W3C//DTD SVG 1.1//EN" "http://www.w3.org/Graphics/SVG/1.1/DTD/svg11.dtd">
<svg version="1.1" id="Layer_1" xmlns="http://www.w3.org/2000/svg" xmlns:xlink="http://www.w3.org/1999/xlink" x="0px" y="0px"
	 width="496px" height="544px" viewBox="0 0 496 544" enable-background="new 0 0 496 544" xml:space="preserve">
<g>
	<g>
		<g>
			<path fill="none" stroke="#000000" stroke-width="3.9442" stroke-linecap="round" d="M292.075,41.546
				c14.938,0.022,29.882-0.044,44.816,0.033c8.802,12.101,15.406,26.067,23.184,38.967"/>
			<path fill="none" stroke="#000000" stroke-width="3.9507" stroke-linecap="round" d="M360.075,80.546
				c14.605,0.022,29.214-0.043,43.816,0.032c8.549,11.643,15.6,25.054,22.184,37.968"/>
			<path fill="none" stroke="#000000" stroke-width="3.8759" stroke-linecap="round" d="M69.408,424.546
				c-14.636-0.218-29.413,0.436-43.961-0.326c-7.956-11.98-14.836-24.763-21.865-37.363c5.88-13.327,14.834-25.617,21.492-38.811"/>
			<path fill="none" stroke="#000000" stroke-width="3.7039" stroke-linecap="round" d="M25.075,348.046
				c-6.876-12.939-15.17-25.188-21.578-38.316c6.652-12.957,14.583-25.373,21.578-38.183"/>
			<path fill="none" stroke="#000000" stroke-width="3.7191" stroke-linecap="round" d="M25.075,271.546
				c-6.68-13.075-15.306-25.154-21.414-38.452c6.227-13.284,14.841-25.382,21.414-38.548"/>
			<path fill="none" stroke="#000000" stroke-width="3.8862" stroke-linecap="round" d="M25.075,194.546
				c-7.175-12.17-14.021-24.606-21.301-36.712c4.737-13.498,14.039-26.524,21.674-38.992c14.524-0.875,29.233,0.273,43.77-0.583"/>
			<path fill="none" stroke="#000000" stroke-width="3.9437" stroke-linecap="round" d="M69.218,118.26
				c7.622-12.609,14.576-25.701,22.333-38.249c14.732-0.894,29.846-0.534,44.667-0.18"/>
			<path fill="none" stroke="#000000" stroke-width="3.9424" stroke-linecap="round" d="M136.218,79.832
				c7.627-12.521,14.208-25.768,22.352-37.918c14.516-0.854,29.242-0.125,43.839-0.368"/>
			<path fill="none" stroke="#000000" stroke-width="3.3899" stroke-linecap="round" d="M202.408,41.546
				c7.396-12.638,14.651-25.272,21.981-37.951c14.351,0,30.186-0.182,45.369-0.182c7.92,12.341,14.898,25.412,22.316,38.133"/>
			<path fill="none" stroke="#000000" stroke-width="3.705" stroke-linecap="round" d="M202.408,41.546
				c6.997,12.771,14.591,25.271,21.667,38"/>
			<path fill="none" stroke="#000000" stroke-width="4.062" stroke-linecap="round" d="M224.075,79.546
				c15.374,0.188,30.805-0.376,46.143,0.286"/>
			<path fill="none" stroke="#000000" stroke-width="4.2151" stroke-linecap="round" d="M136.218,79.832
				c6.083,13.192,14.868,25.029,21.079,38.159"/>
			<path fill="none" stroke="#000000" stroke-width="4.0627" stroke-linecap="round" d="M157.297,117.99
				c14.898-0.825,30.001-0.542,44.92-0.159"/>
			<path fill="none" stroke="#000000" stroke-width="3.7234" stroke-linecap="round" d="M202.218,117.832
				c7.793-12.385,15.487-25.162,21.857-38.286"/>
			<path fill="none" stroke="#000000" stroke-width="3.7357" stroke-linecap="round" d="M270.218,79.832
				c6.732,13.115,14.709,25.488,21.716,38.429"/>
			<path fill="none" stroke="#000000" stroke-width="4.062" stroke-linecap="round" d="M291.933,118.26
				c15.541,0.659,31.168,0.101,46.741,0.286"/>
			<path fill="none" stroke="#000000" stroke-width="3.705" stroke-linecap="round" d="M292.075,41.546
				c-7.146,12.82-14.754,25.435-21.857,38.286"/>
			<path fill="none" stroke="#000000" stroke-width="3.7448" stroke-linecap="round" d="M69.218,118.26
				c7.409,12.729,14.965,25.255,21.857,38.287"/>
			<path fill="none" stroke="#000000" stroke-width="4.0613" stroke-linecap="round" d="M91.075,156.546c15,0,30,0,45,0"/>
			<path fill="none" stroke="#000000" stroke-width="4.3843" stroke-linecap="round" d="M136.075,156.546
				c6.455-13.137,15.447-25.142,21.222-38.556"/>
			<path fill="none" stroke="#000000" stroke-width="3.7357" stroke-linecap="round" d="M202.218,117.832
				c6.935,13.122,15.047,25.528,21.857,38.714"/>
			<path fill="none" stroke="#000000" stroke-width="4.0613" stroke-linecap="round" d="M224.075,156.546c15.333,0,30.667,0,46,0"/>
			<path fill="none" stroke="#000000" stroke-width="3.6866" stroke-linecap="round" d="M270.075,156.546
				c7.172-12.833,14.915-25.306,21.857-38.287"/>
			<path fill="none" stroke="#000000" stroke-width="4.248" stroke-linecap="round" d="M338.675,118.546
				c6.435,13.029,14.376,25.247,21.4,38"/>
			<path fill="none" stroke="#000000" stroke-width="4.0613" stroke-linecap="round" d="M360.075,156.546c15,0,30,0,45,0"/>
			<path fill="none" stroke="#000000" stroke-width="4.3693" stroke-linecap="round" d="M360.075,80.546
				c-7.183,12.644-15.214,24.832-21.4,38"/>
			<path fill="none" stroke="#000000" stroke-width="4.062" stroke-linecap="round" d="M157.475,194.546
				c14.907,0.188,29.872-0.377,44.743,0.286"/>
			<path fill="none" stroke="#000000" stroke-width="3.6866" stroke-linecap="round" d="M202.218,194.833
				c7.517-12.626,15.252-25.147,21.857-38.286"/>
			<path fill="none" stroke="#000000" stroke-width="4.062" stroke-linecap="round" d="M25.075,194.546
				c14.707,0.187,29.472-0.376,44.143,0.286"/>
			<path fill="none" stroke="#000000" stroke-width="3.8125" stroke-linecap="round" d="M69.218,194.833
				c7.31-12.775,14.981-25.281,21.857-38.286"/>
			<path fill="none" stroke="#000000" stroke-width="4.062" stroke-linecap="round" d="M291.933,195.26
				c15.341,0.658,30.768,0.101,46.143,0.286"/>
			<path fill="none" stroke="#000000" stroke-width="4.3205" stroke-linecap="round" d="M338.075,195.546
				c6.845-13.232,15.146-25.793,22-39"/>
			<path fill="none" stroke="#000000" stroke-width="3.8927" stroke-linecap="round" d="M470.825,195.046
				c7.207-12.624,14.86-25.238,21.678-37.988c-6.615-12.989-14.055-25.859-21.922-38.145c-14.738-0.854-29.688-0.125-44.506-0.368"
				/>
			<path fill="none" stroke="#000000" stroke-width="3.8406" stroke-linecap="round" d="M426.075,118.546
				c-5.973,13.115-14.595,24.967-21,38"/>
			<path fill="none" stroke="#000000" stroke-width="4.0613" stroke-linecap="round" d="M91.075,233.546c15,0,30,0,45,0"/>
			<path fill="none" stroke="#000000" stroke-width="4.3894" stroke-linecap="round" d="M136.075,233.546
				c6.24-13.461,15.383-25.426,21.4-39"/>
			<path fill="none" stroke="#000000" stroke-width="4.2265" stroke-linecap="round" d="M157.475,194.546
				c-6.754-12.886-14.816-25.039-21.4-38"/>
			<path fill="none" stroke="#000000" stroke-width="4.062" stroke-linecap="round" d="M224.075,232.546
				c15.374,0.188,30.805-0.376,46.143,0.286"/>
			<path fill="none" stroke="#000000" stroke-width="3.6957" stroke-linecap="round" d="M270.218,232.833
				c7.238-12.534,14.543-24.986,21.716-37.571"/>
			<path fill="none" stroke="#000000" stroke-width="3.7357" stroke-linecap="round" d="M291.933,195.26
				c-6.75-13.231-14.946-25.576-21.857-38.714"/>
			<path fill="none" stroke="#000000" stroke-width="4.0613" stroke-linecap="round" d="M360.075,233.546c15,0,30,0,45,0"/>
			<path fill="none" stroke="#000000" stroke-width="3.7417" stroke-linecap="round" d="M427.075,195.046
				c-7.791-12.542-15.471-25.319-22-38.5"/>
			<path fill="none" stroke="#000000" stroke-width="4.0613" stroke-linecap="round" d="M25.075,271.546c15,0,30,0,45,0"/>
			<path fill="none" stroke="#000000" stroke-width="3.8109" stroke-linecap="round" d="M70.075,271.546
				c5.661-13.324,14.341-25.146,21-38"/>
			<path fill="none" stroke="#000000" stroke-width="3.785" stroke-linecap="round" d="M91.075,233.546
				c-6.442-13.24-14.672-25.798-21.857-38.714"/>
			<path fill="none" stroke="#000000" stroke-width="4.0627" stroke-linecap="round" d="M157.297,270.99
				c15.104-0.729,30.457-0.74,45.555,0"/>
			<path fill="none" stroke="#000000" stroke-width="3.7386" stroke-linecap="round" d="M202.853,270.99
				c6.738-13.002,15.486-24.986,21.223-38.443"/>
			<path fill="none" stroke="#000000" stroke-width="3.7268" stroke-linecap="round" d="M224.075,232.546
				c-7.402-12.471-14.473-25.22-21.857-37.714"/>
			<path fill="none" stroke="#000000" stroke-width="4.0627" stroke-linecap="round" d="M291.933,272.26
				c15.588,0.374,31.36,0.678,46.92-0.159"/>
			<path fill="none" stroke="#000000" stroke-width="4.3843" stroke-linecap="round" d="M338.853,272.103
				c5.485-13.529,14.424-25.566,21.223-38.557"/>
			<path fill="none" stroke="#000000" stroke-width="4.2023" stroke-linecap="round" d="M360.075,233.546
				c-7.023-12.773-14.27-25.63-22-38"/>
			<path fill="none" stroke="#000000" stroke-width="3.7004" stroke-linecap="round" d="M471.075,271.546
				c6.808-12.863,15.007-25.034,21.371-38.1c-6.484-13.142-14.685-25.444-21.621-38.4"/>
			<path fill="none" stroke="#000000" stroke-width="5.0492" stroke-linecap="round" d="M470.825,195.046
				c-14.583,0-29.167,0-43.75,0"/>
			<path fill="none" stroke="#000000" stroke-width="3.8181" stroke-linecap="round" d="M427.075,195.046
				c-7.62,12.609-15.448,25.366-22,38.5"/>
			<path fill="none" stroke="#000000" stroke-width="4.062" stroke-linecap="round" d="M224.075,309.546
				c15.374,0.188,30.805-0.376,46.143,0.286"/>
			<path fill="none" stroke="#000000" stroke-width="3.6547" stroke-linecap="round" d="M270.218,309.832
				c7.019-12.659,14.224-25.185,21.716-37.571"/>
			<path fill="none" stroke="#000000" stroke-width="3.7388" stroke-linecap="round" d="M291.933,272.26
				c-6.272-13.513-15.395-25.944-21.716-39.429"/>
			<path fill="none" stroke="#000000" stroke-width="4.0613" stroke-linecap="round" d="M91.075,309.546c15,0,30,0,45,0"/>
			<path fill="none" stroke="#000000" stroke-width="4.3589" stroke-linecap="round" d="M136.075,309.546
				c6.719-13.014,15.633-25.123,21.222-38.556"/>
			<path fill="none" stroke="#000000" stroke-width="4.2173" stroke-linecap="round" d="M157.297,270.99
				c-6.621-12.701-14.402-24.815-21.222-37.443"/>
			<path fill="none" stroke="#000000" stroke-width="4.1947" stroke-linecap="round" d="M338.853,272.103
				c6.469,13.024,14.268,25.292,21.473,37.943"/>
			<path fill="none" stroke="#000000" stroke-width="3.7929" stroke-linecap="round" d="M426.075,271.546
				c-6.059-13.062-14.736-24.919-21-38"/>
			<path fill="none" stroke="#000000" stroke-width="4.0627" stroke-linecap="round" d="M157.297,347.989
				c14.898-0.824,30.001-0.541,44.92-0.158"/>
			<path fill="none" stroke="#000000" stroke-width="3.7234" stroke-linecap="round" d="M202.218,347.832
				c7.645-12.496,15.562-25.106,21.857-38.286"/>
			<path fill="none" stroke="#000000" stroke-width="3.8164" stroke-linecap="round" d="M224.075,309.546
				c-6.686-13.051-15.508-25.051-21.223-38.556"/>
			<path fill="none" stroke="#000000" stroke-width="5.0492" stroke-linecap="round" d="M25.075,348.046c14.667,0,29.333,0,44,0"/>
			<path fill="none" stroke="#000000" stroke-width="3.8181" stroke-linecap="round" d="M69.075,348.046
				c7.558-12.707,15.354-25.42,22-38.5"/>
			<path fill="none" stroke="#000000" stroke-width="3.7929" stroke-linecap="round" d="M91.075,309.546
				c-6.602-12.867-15.246-24.736-21-38"/>
			<path fill="none" stroke="#000000" stroke-width="3.7088" stroke-linecap="round" d="M471.075,348.546
				c6.286-13.486,16.064-25.719,21.265-39.314c-6.924-12.681-14.86-24.748-21.265-37.685"/>
			<path fill="none" stroke="#000000" stroke-width="4.0613" stroke-linecap="round" d="M471.075,271.546c-15,0-30,0-45,0"/>
			<path fill="none" stroke="#000000" stroke-width="3.8701" stroke-linecap="round" d="M426.075,271.546
				c-5.83,13.433-14.619,25.431-21.25,38.5"/>
			<path fill="none" stroke="#000000" stroke-width="3.7357" stroke-linecap="round" d="M270.218,309.832
				c6.707,13.133,14.819,25.405,21.716,38.429"/>
			<path fill="none" stroke="#000000" stroke-width="4.062" stroke-linecap="round" d="M291.933,348.26
				c15.541,0.659,31.168,0.101,46.741,0.286"/>
			<path fill="none" stroke="#000000" stroke-width="4.3589" stroke-linecap="round" d="M338.675,348.546
				c6.2-13.337,14.4-25.714,21.65-38.5"/>
			<path fill="none" stroke="#000000" stroke-width="4.0613" stroke-linecap="round" d="M91.075,386.546c15,0,30,0,45,0"/>
			<path fill="none" stroke="#000000" stroke-width="4.3843" stroke-linecap="round" d="M136.075,386.546
				c6.454-13.141,15.355-25.163,21.222-38.557"/>
			<path fill="none" stroke="#000000" stroke-width="4.2151" stroke-linecap="round" d="M157.297,347.989
				c-6.259-13.223-15.008-25.184-21.222-38.443"/>
			<path fill="none" stroke="#000000" stroke-width="3.7357" stroke-linecap="round" d="M202.218,347.832
				c6.94,13.117,15.129,25.467,21.857,38.714"/>
			<path fill="none" stroke="#000000" stroke-width="4.0613" stroke-linecap="round" d="M224.075,386.546c15.333,0,30.667,0,46,0"/>
			<path fill="none" stroke="#000000" stroke-width="3.6866" stroke-linecap="round" d="M270.075,386.546
				c7.143-12.855,14.855-25.35,21.857-38.286"/>
			<path fill="none" stroke="#000000" stroke-width="3.8406" stroke-linecap="round" d="M405.075,386.546
				c6.354-13.04,14.995-24.847,21-38"/>
			<path fill="none" stroke="#000000" stroke-width="3.7929" stroke-linecap="round" d="M426.075,348.546
				c-5.884-13.425-14.683-25.371-21.25-38.5"/>
			<path fill="none" stroke="#000000" stroke-width="5.0492" stroke-linecap="round" d="M404.825,310.046c-14.833,0-29.667,0-44.5,0
				"/>
			<path fill="none" stroke="#000000" stroke-width="4.2265" stroke-linecap="round" d="M136.075,386.546
				c6.637,12.908,14.662,25.097,21.4,38"/>
			<path fill="none" stroke="#000000" stroke-width="4.062" stroke-linecap="round" d="M157.475,424.546
				c14.907,0.188,29.872-0.377,44.743,0.286"/>
			<path fill="none" stroke="#000000" stroke-width="3.6866" stroke-linecap="round" d="M202.218,424.832
				c7.479-12.657,15.2-25.187,21.857-38.286"/>
			<path fill="none" stroke="#000000" stroke-width="3.8125" stroke-linecap="round" d="M69.408,424.546
				c7.096-12.745,14.875-25.083,21.667-38"/>
			<path fill="none" stroke="#000000" stroke-width="3.7633" stroke-linecap="round" d="M91.075,386.546
				c-6.842-13.137-14.523-25.743-22-38.5"/>
			<path fill="none" stroke="#000000" stroke-width="4.3205" stroke-linecap="round" d="M338.075,425.546
				c6.839-13.236,15.06-25.814,22-39"/>
			<path fill="none" stroke="#000000" stroke-width="4.2693" stroke-linecap="round" d="M360.075,386.546
				c-6.923-12.796-14.965-24.991-21.4-38"/>
			<path fill="none" stroke="#000000" stroke-width="3.8921" stroke-linecap="round" d="M426.742,424.546
				c14.636-0.218,29.412,0.436,43.961-0.326c8.045-11.803,14.767-24.812,21.798-37.164c-6.146-13.321-14.812-25.383-21.426-38.51"/>
			<path fill="none" stroke="#000000" stroke-width="4.0613" stroke-linecap="round" d="M471.075,348.546c-15,0-30,0-45,0"/>
			<path fill="none" stroke="#000000" stroke-width="3.937" stroke-linecap="round" d="M69.408,424.546
				c7.083,12.713,14.049,25.608,22.04,37.702c14.816,0.689,29.761,0.102,44.626,0.298"/>
			<path fill="none" stroke="#000000" stroke-width="4.3693" stroke-linecap="round" d="M136.075,462.546
				c7.137-12.691,15.184-24.857,21.4-38"/>
			<path fill="none" stroke="#000000" stroke-width="4.062" stroke-linecap="round" d="M224.075,462.546
				c15.374,0.188,30.805-0.376,46.143,0.286"/>
			<path fill="none" stroke="#000000" stroke-width="3.6742" stroke-linecap="round" d="M270.218,462.832
				c7.507-12.36,14.593-24.995,21.716-37.572"/>
			<path fill="none" stroke="#000000" stroke-width="3.7154" stroke-linecap="round" d="M291.933,425.26
				c-6.562-13.299-14.741-25.709-21.857-38.714"/>
			<path fill="none" stroke="#000000" stroke-width="3.9326" stroke-linecap="round" d="M359.933,463.26
				c14.614,0.635,29.321,0.147,43.969,0.253c8.334-12.43,15.48-25.842,22.841-38.967"/>
			<path fill="none" stroke="#000000" stroke-width="3.7598" stroke-linecap="round" d="M426.742,424.546
				c-7.509-12.45-15.271-25.007-21.667-38"/>
			<path fill="none" stroke="#000000" stroke-width="4.0613" stroke-linecap="round" d="M405.075,386.546c-15,0-30,0-45,0"/>
			<path fill="none" stroke="#000000" stroke-width="3.9409" stroke-linecap="round" d="M136.075,462.546
				c7.362,13.438,14.724,27.232,23.205,39.76c14.479,0.273,29.13,0.657,43.572-0.204"/>
			<path fill="none" stroke="#000000" stroke-width="3.8371" stroke-linecap="round" d="M202.853,502.102
				c5.75-13.761,15.533-25.748,21.223-39.556"/>
			<path fill="none" stroke="#000000" stroke-width="3.7268" stroke-linecap="round" d="M224.075,462.546
				c-7.402-12.471-14.473-25.22-21.857-37.714"/>
			<path fill="none" stroke="#000000" stroke-width="3.9332" stroke-linecap="round" d="M291.933,502.26
				c14.93,0.521,30.021,0.378,44.937,0.081c8.328-12.58,15.193-26.144,23.063-39.081"/>
			<path fill="none" stroke="#000000" stroke-width="4.2023" stroke-linecap="round" d="M359.933,463.26
				c-6.892-12.751-14.217-25.396-21.857-37.714"/>
			<path fill="none" stroke="#000000" stroke-width="4.062" stroke-linecap="round" d="M338.075,425.546
				c-15.374-0.188-30.805,0.376-46.143-0.286"/>
			<path fill="none" stroke="#000000" stroke-width="3.8811" stroke-linecap="round" d="M202.853,502.102
				c7.248,12.835,14.289,26.133,22.428,38.204c14.503,0.534,29.083,0.127,43.611,0.208c8.896-11.749,15.086-25.682,23.041-38.254"/>
			<path fill="none" stroke="#000000" stroke-width="3.7388" stroke-linecap="round" d="M291.933,502.26
				c-6.021-13.694-15.257-25.896-21.716-39.428"/>
		</g>
	</g>
</g>
</svg>
