<?xml version="1.0" encoding="utf-8"?>
<!-- Generator: Adobe Illustrator 15.0.0, SVG Export Plug-In . SVG Version: 6.00 Build 0)  -->
<!DOCTYPE svg PUBLIC "-//W3C//DTD SVG 1.1//EN" "http://www.w3.org/Graphics/SVG/1.1/DTD/svg11.dtd">
<svg version="1.1"
	 id="svg4885" sodipodi:docname="New document 36" inkscape:version="0.48.2 r9819" xmlns:inkscape="http://www.inkscape.org/namespaces/inkscape" xmlns:sodipodi="http://sodipodi.sourceforge.net/DTD/sodipodi-0.dtd" xmlns:rdf="http://www.w3.org/1999/02/22-rdf-syntax-ns#" xmlns:svg="http://www.w3.org/2000/svg" xmlns:cc="http://creativecommons.org/ns#" xmlns:dc="http://purl.org/dc/elements/1.1/"
	 xmlns="http://www.w3.org/2000/svg" xmlns:xlink="http://www.w3.org/1999/xlink" x="0px" y="0px" width="80.528px"
	 height="111.125px" viewBox="0 0 80.528 111.125" enable-background="new 0 0 80.528 111.125" xml:space="preserve">
<sodipodi:namedview  inkscape:window-maximized="0" inkscape:window-y="111" inkscape:window-x="197" inkscape:window-height="650" inkscape:window-width="637" fit-margin-bottom="0" fit-margin-right="0" fit-margin-left="0" fit-margin-top="0" showgrid="false" inkscape:current-layer="layer1" inkscape:document-units="px" inkscape:cx="41.767526" inkscape:zoom="1.4" inkscape:pageshadow="2" inkscape:pageopacity="0.0" inkscape:cy="105.24538" id="base" bordercolor="#666666" borderopacity="1.0" pagecolor="#ffffff">
	</sodipodi:namedview>
<g id="layer1" transform="translate(-385.45,-551.08507)" inkscape:label="Layer 1" inkscape:groupmode="layer">
	<g id="g4623" transform="matrix(0.57629597,0,0,0.57629597,324.83432,452.78425)">
		
			<linearGradient id="path4625_1_" gradientUnits="userSpaceOnUse" x1="2075.8105" y1="-1519.507" x2="2075.8105" y2="-1347.2008" gradientTransform="matrix(0.2952 0 0 -0.4703 -437.683 -366.041)">
			<stop  offset="0" style="stop-color:#69D2E7"/>
			<stop  offset="1" style="stop-color:#3AA0F2"/>
		</linearGradient>
		
			<path id="path4625" sodipodi:type="star" sodipodi:sides="3" sodipodi:cx="232.33508" sodipodi:cy="282.62595" sodipodi:r1="157.50931" sodipodi:r2="78.754654" sodipodi:arg1="0.52359878" inkscape:flatsided="false" sodipodi:arg2="1.5707963" inkscape:rounded="0" inkscape:randomized="0" inkscape:transform-center-y="-32.137903" fill="url(#path4625_1_)" d="
			M244.915,363.4h-69.866h-69.867l34.934-96.413l34.933-96.413l34.935,96.413L244.915,363.4z"/>
		<g id="g4627" transform="translate(26.406716,0)">
			<g id="g4629">
				
					<path id="path4631" sodipodi:type="arc" sodipodi:cx="357.08893" sodipodi:cy="116.45585" sodipodi:rx="16.667517" sodipodi:ry="16.667517" fill="#FFFFFF" d="
					M130.31,326.568c0,9.205-7.462,16.668-16.668,16.668c-9.205,0-16.668-7.463-16.668-16.668s7.463-16.668,16.668-16.668
					C122.848,309.9,130.31,317.363,130.31,326.568z"/>
				<path id="path4633" inkscape:connector-curvature="0" d="M113.656,321.25c-0.593,0-1.186,0.102-1.719,0.281
					c0.146,0.319,0.219,0.657,0.219,1.032c0,1.395-1.106,2.53-2.5,2.53c-0.373,0-0.744-0.073-1.062-0.219
					c-0.18,0.532-0.25,1.095-0.25,1.688c0,2.93,2.383,5.312,5.312,5.312c2.929,0,5.281-2.383,5.281-5.312
					C118.937,323.634,116.585,321.25,113.656,321.25z"/>
			</g>
			<g id="g4635" transform="translate(70,0)">
				
					<path id="path4637" sodipodi:type="arc" sodipodi:cx="357.08893" sodipodi:cy="116.45585" sodipodi:rx="16.667517" sodipodi:ry="16.667517" fill="#FFFFFF" d="
					M130.309,326.568c0,9.205-7.461,16.668-16.668,16.668c-9.205,0-16.668-7.463-16.668-16.668s7.463-16.668,16.668-16.668
					C122.848,309.9,130.309,317.363,130.309,326.568z"/>
				<path id="path4639" inkscape:connector-curvature="0" d="M113.656,321.25c-0.593,0-1.186,0.102-1.72,0.281
					c0.146,0.319,0.22,0.657,0.22,1.032c0,1.395-1.105,2.53-2.501,2.53c-0.373,0-0.742-0.073-1.061-0.219
					c-0.18,0.532-0.251,1.095-0.251,1.688c0,2.93,2.383,5.312,5.312,5.312s5.282-2.383,5.282-5.312
					C118.938,323.634,116.586,321.25,113.656,321.25z"/>
			</g>
		</g>
		
			<path id="path4641" sodipodi:type="arc" sodipodi:cx="159.28572" sodipodi:cy="380.93362" sodipodi:rx="15" sodipodi:ry="9.2857141" sodipodi:end="3.1415927" sodipodi:start="0" d="
			M190.049,340.792c0,5.128-6.715,9.284-15,9.284c-8.284,0-15-4.157-15-9.284l0,0h15H190.049z"/>
	</g>
</g>
</svg>
